<?xml version="1.0" encoding="UTF-8" standalone="no"?>
<svg
   xmlns:dc="http://purl.org/dc/elements/1.1/"
   xmlns:cc="http://creativecommons.org/ns#"
   xmlns:rdf="http://www.w3.org/1999/02/22-rdf-syntax-ns#"
   xmlns:svg="http://www.w3.org/2000/svg"
   xmlns="http://www.w3.org/2000/svg"
   xmlns:sodipodi="http://sodipodi.sourceforge.net/DTD/sodipodi-0.dtd"
   xmlns:inkscape="http://www.inkscape.org/namespaces/inkscape"
   inkscape:version="1.0beta2 (2b71d25, 2019-12-03)"
   sodipodi:docname="wizard_logo.svg"
   id="svg35"
   version="1.1"
   fill="none"
   viewBox="0 0 187 88"
   height="88"
   width="187">
  <metadata
     id="metadata39">
    <rdf:RDF>
      <cc:Work
         rdf:about="">
        <dc:format>image/svg+xml</dc:format>
        <dc:type
           rdf:resource="http://purl.org/dc/dcmitype/StillImage" />
      </cc:Work>
    </rdf:RDF>
  </metadata>
  <sodipodi:namedview
     inkscape:current-layer="svg35"
     inkscape:window-maximized="0"
     inkscape:window-y="0"
     inkscape:window-x="0"
     inkscape:cy="65.469405"
     inkscape:cx="69.52522"
     inkscape:zoom="3.4564306"
     showgrid="false"
     id="namedview37"
     inkscape:window-height="900"
     inkscape:window-width="1440"
     inkscape:pageshadow="2"
     inkscape:pageopacity="0"
     guidetolerance="10"
     gridtolerance="10"
     objecttolerance="10"
     borderopacity="1"
     inkscape:document-rotation="0"
     bordercolor="#666666"
     pagecolor="#ffffff" />
  <defs
     id="defs33">
    <clipPath
       id="clip0">
      <rect
         id="rect30"
         fill="white"
         height="88"
         width="187" />
    </clipPath>
    <clipPath
       id="clip0_44_3">
      <rect
         y="0"
         x="0"
         width="1024"
         height="693"
         rx="100"
         fill="white"
         id="rect432" />
    </clipPath>
    <filter
       id="filter0_d_44_3"
       x="138.25"
       y="106.125"
       width="747.5"
       height="541.25"
       filterUnits="userSpaceOnUse"
       color-interpolation-filters="sRGB">
      <feFlood
         flood-opacity="0"
         result="BackgroundImageFix"
         id="feFlood415" />
      <feColorMatrix
         in="SourceAlpha"
         type="matrix"
         values="0 0 0 0 0 0 0 0 0 0 0 0 0 0 0 0 0 0 127 0"
         result="hardAlpha"
         id="feColorMatrix417" />
      <feOffset
         dy="30"
         id="feOffset419" />
      <feGaussianBlur
         stdDeviation="15"
         id="feGaussianBlur421" />
      <feComposite
         in2="hardAlpha"
         operator="out"
         id="feComposite423" />
      <feColorMatrix
         type="matrix"
         values="0 0 0 0 0 0 0 0 0 0 0 0 0 0 0 0 0 0 0.25 0"
         id="feColorMatrix425" />
      <feBlend
         mode="normal"
         in2="BackgroundImageFix"
         result="effect1_dropShadow_44_3"
         id="feBlend427" />
      <feBlend
         mode="normal"
         in="SourceGraphic"
         in2="effect1_dropShadow_44_3"
         result="shape"
         id="feBlend429" />
    </filter>
  </defs>
  <g
     transform="matrix(0.15384615,0,0,0.15384565,15.279833,-15.083352)"
     clip-path="url(#clip0_44_3)"
     id="g413">
    <g
       filter="url(#filter0_d_44_3)"
       id="g411">
      <path
         inkscape:connector-curvature="0"
         d="m 752.625,286.594 c 30.794,10.742 55.501,29.72 74.121,56.933 19.336,26.498 29.004,56.218 29.004,89.161 0,42.968 -15.039,79.492 -45.117,109.57 -30.078,30.078 -66.602,45.117 -109.571,45.117 H 340.125 c -47.266,0 -87.728,-16.829 -121.387,-50.488 C 185.079,503.228 168.25,462.766 168.25,415.5 c 0,-35.091 9.668,-66.96 29.004,-95.605 20.052,-29.362 46.191,-50.489 78.418,-63.379 8.594,-43.685 30.078,-79.493 64.453,-107.422 35.091,-28.646 75.195,-42.969 120.313,-42.969 29.361,0 56.933,6.445 82.714,19.336 25.782,12.891 47.624,30.078 65.528,51.562 7.877,-1.432 15.755,-2.148 23.632,-2.148 31.511,0 58.724,10.742 81.641,32.227 23.633,21.484 36.524,47.981 38.672,79.492 z m -51.563,249.218 c 28.646,0 52.995,-10.026 73.047,-30.078 20.052,-20.052 30.079,-44.401 30.079,-73.046 0,-28.646 -10.027,-52.995 -30.079,-73.047 -20.052,-20.052 -44.401,-30.079 -73.047,-30.079 -3.58,0 -6.803,0 -9.667,0 6.445,-10.742 9.667,-22.2 9.667,-34.374 0,-18.62 -6.803,-34.734 -20.41,-48.34 -13.606,-13.607 -29.72,-20.41 -48.34,-20.41 -17.187,0 -32.226,5.371 -45.117,16.113 -10.026,-25.065 -26.497,-45.475 -49.414,-61.231 -22.916,-15.755 -48.698,-23.632 -77.343,-23.632 -37.956,0 -70.541,13.606 -97.754,40.82 -26.498,26.497 -39.746,58.724 -39.746,96.68 v 1.074 c -29.362,4.297 -54.07,17.903 -74.122,40.82 -19.336,22.201 -29.004,48.34 -29.004,78.418 0,32.943 11.817,61.23 35.45,84.863 23.633,23.633 51.92,35.449 84.863,35.449 z"
         fill="white"
         id="path409" />
    </g>
  </g>
</svg>
